<?xml version="1.0" encoding="UTF-8"?>
<svg xmlns="http://www.w3.org/2000/svg" version="1.1" viewBox="0 0 1577.7 423.4">
  <defs>
    <style>
      .cls-1 {
        fill: #fff;
      }

      .cls-2 {
        font-family: Nikkyou-Sans, 'Nikkyou Sans';
        font-size: 172px;
      }

      .cls-3 {
        fill: #d02c2f;
      }
    </style>
  </defs>
  <!-- Generator: Adobe Illustrator 28.6.0, SVG Export Plug-In . SVG Version: 1.2.0 Build 709)  -->
  <g>
    <g id="mute-2">
      <rect class="cls-3" x="-406.1" y="-206.5" width="2326.8" height="842" rx="197.5" ry="197.5"/>
      <path class="cls-3" d="M2409,413.5c-1.2,49.8-.7,99.7-.7,152.7,18-1.9,33.4-3,48.7-5.3,221.4-32.5,353.8-260.1,270.4-466.7-55.5-137.3-161.9-206.7-307.7-217.4-52.3-3.8-157.6-1.2-157.6-1.2h-51.5c0,.1-.2-50.4-.2-50.4,0,0,0-17,0-31.3-79.7,56.6-154.1,109.5-230.3,163.6,78.2,55.4,153.5,108.9,232,164.5,0-23.3-.3-81.8-.3-81.8l21.8-.2s117.1-.1,175.7.6c138.6,1.8,223.1,152.4,152.4,271.1-10.1,16.2-28.7,41.5-59.8,63.6-36.9,26.2-73.1,34.8-92.9,38Z"/>
      <text class="cls-2" transform="translate(-1225.4 214.8)"><tspan x="0" y="0">Home</tspan></text>
      <g>
        <path class="cls-1" d="M263.9,121.5h28.5c2.3,0,3.8.9,4.3,2.8.6,1.9.5,3.4-.3,4.5l-88.2,197.6h80.7c1.5,0,3.1.6,4.8,1.8,1.7,1.2,2.5,3,2.5,5.3v42.3c0,2.2-.8,3.9-2.5,5.2-1.7,1.3-3.3,1.9-4.8,1.9h-156.7c-2.3,0-3.8-.9-4.3-2.8-.6-1.9-.5-3.4.3-4.5l88.2-197.6h-79.3c-1.5,0-3.1-.6-4.8-1.9-1.7-1.3-2.5-3-2.5-5.2v-42.3c0-2.3.8-4.1,2.5-5.3,1.7-1.2,3.3-1.8,4.8-1.8h126.8Z"/>
        <path class="cls-1" d="M322.7,375.4v-246.6c0-1.5.6-3.1,1.9-4.8,1.3-1.7,3-2.5,5.2-2.5h42.3c2.3,0,4.1.8,5.4,2.5,1.3,1.7,1.9,3.3,1.7,4.8v197.4h75.7v-197.4c.1-1.5.8-3.1,2-4.8,1.2-1.7,2.9-2.5,5.1-2.5h42.3c2.3,0,4.1.8,5.3,2.5,1.2,1.7,1.8,3.3,1.8,4.8v246.6c0,1.5-.6,3.1-1.9,4.8-1.3,1.7-3.1,2.5-5.4,2.5h-174.3c-2.2,0-3.9-.8-5.2-2.5-1.3-1.7-1.9-3.3-1.9-4.8Z"/>
        <path class="cls-1" d="M555.1,128.8c.1-.6.3-1.3.7-2.1.3-.8,1.1-1.9,2.3-3.2,1.2-1.3,2.6-2,4.1-2h174.1c2.2,0,3.9.8,5.2,2.5,1.3,1.7,1.9,3.3,1.9,4.8v148.2c0,1.5-.6,3.1-1.9,4.8-1.3,1.7-3,2.5-5.2,2.5h-28.7l39.8,91.1c.8,1.2,1,2.7.4,4.5-.5,1.9-1.9,2.8-4.3,2.8h-43.8c-2.2,0-4.3-.8-6.3-2.5-2-1.7-3.3-3.3-4-4.8l-40-91.1h-37.9v91.1c0,1.5-.6,3.1-1.9,4.8-1.3,1.7-3,2.5-5.2,2.5h-42.3c-2.3,0-4.1-.8-5.3-2.5-1.2-1.7-1.8-3.3-1.8-4.8v-246.6ZM686.9,178.1h-75.3v49.7h75.3v-49.7Z"/>
        <path class="cls-1" d="M787.4,375.4v-246.6c0-1.5.6-3.1,1.9-4.8,1.3-1.7,3-2.5,5.2-2.5h42.3c2.3,0,4.1.8,5.4,2.5,1.3,1.7,1.9,3.3,1.7,4.8v197.4h75.7v-197.4c.1-1.5.8-3.1,2-4.8,1.2-1.7,2.9-2.5,5.1-2.5h42.3c2.3,0,4.1.8,5.3,2.5,1.2,1.7,1.8,3.3,1.8,4.8v246.6c0,1.5-.6,3.1-1.9,4.8-1.3,1.7-3.1,2.5-5.4,2.5h-174.3c-2.2,0-3.9-.8-5.2-2.5-1.3-1.7-1.9-3.3-1.9-4.8ZM862,40.4c2.3,0,4.1.8,5.3,2.5,1.2,1.7,1.8,3.3,1.8,4.8v37c0,1.5-.6,3.1-1.8,4.8-1.2,1.7-3,2.5-5.3,2.5h-42.3c-2.2,0-3.9-.8-5.2-2.5-1.3-1.7-1.9-3.3-1.9-4.8v-37c0-1.5.6-3.1,1.9-4.8,1.3-1.7,3-2.5,5.2-2.5h42.3ZM943.8,40.4c2.3,0,4.1.8,5.3,2.5,1.2,1.7,1.8,3.3,1.8,4.8v37c0,1.5-.6,3.1-1.8,4.8-1.2,1.7-3,2.5-5.3,2.5h-42.3c-2.2,0-3.9-.8-5.2-2.5-1.3-1.7-1.9-3.3-1.9-4.8v-37c0-1.5.6-3.1,1.9-4.8,1.3-1.7,3-2.5,5.2-2.5h42.3Z"/>
        <path class="cls-1" d="M1076.3,178.1v148.2h75.5v-46.4c0-1.5.6-3.1,1.8-4.8,1.2-1.7,3-2.5,5.3-2.5h42.3c2.2,0,3.9.8,5.2,2.5,1.3,1.7,1.9,3.3,1.9,4.8v95.7c0,1.5-.6,3.1-1.9,4.8-1.3,1.7-3,2.5-5.2,2.5h-174.3c-2.3,0-4.1-.8-5.3-2.5-1.2-1.7-1.8-3.3-1.8-4.8v-246.6c0-1.5.6-3.1,1.8-4.8,1.2-1.7,3-2.5,5.3-2.5h174.3c2.2,0,3.9.8,5.2,2.5,1.3,1.7,1.9,3.3,1.9,4.8v80.2c0,1.5-.6,3.1-1.9,4.8-1.3,1.7-3,2.5-5.2,2.5h-42.3c-2.3,0-4.1-.8-5.3-2.5-1.2-1.7-1.8-3.3-1.8-4.8v-31h-75.5Z"/>
        <path class="cls-1" d="M1384.6,121.5h47.3c2.3,0,3.5.9,3.7,2.8.1,1.9-.3,3.4-1.4,4.5l-65.4,97,80.3,149.6c.9,1.2,1.2,2.7.9,4.5-.3,1.9-1.7,2.8-4,2.8h-47.5c-2.2,0-4.4-.8-6.5-2.5-2.1-1.7-3.6-3.3-4.4-4.8l-52.9-98.8-26.1,38.8v60c0,1.5-.6,3.1-1.8,4.8-1.2,1.7-3,2.5-5.3,2.5h-42.3c-2.2,0-3.9-.8-5.2-2.5-1.3-1.7-1.9-3.3-1.9-4.8v-246.6c0-1.5.7-3.1,2-4.8,1.3-1.7,3.1-2.5,5.3-2.5h42.1c2.3,0,4.1.8,5.3,2.5,1.2,1.7,1.8,3.3,1.8,4.8v94.4l64-94.4c1-1.5,2.7-3.1,5-4.8,2.3-1.7,4.6-2.5,7-2.5Z"/>
      </g>
    </g>
  </g>
</svg>