<?xml version="1.0" encoding="utf-8"?>
<!-- Generator: Adobe Illustrator 28.1.0, SVG Export Plug-In . SVG Version: 6.00 Build 0)  -->
<svg version="1.1" xmlns="http://www.w3.org/2000/svg" xmlns:xlink="http://www.w3.org/1999/xlink" x="0px" y="0px"
	 viewBox="0 0 758 758" style="enable-background:new 0 0 758 758;" xml:space="preserve">
<style type="text/css">
	.st0{fill:#FFFFFF;}
	.st1{fill:#202020;}
	.st2{fill:#DB281C;}
</style>
<g id="background">
</g>
<g id="Spotlight">
	<circle class="st0" cx="378.9" cy="378.9" r="287.9"/>
</g>
<g id="Spahiu">
</g>
<g id="Burim">
</g>
<g id="S">
	<path class="st1" d="M299.9,375.9c0,35.2,28.5,63.7,63.7,63.7h0.4l55.3-0.2c8.1,0,15.5,3.3,20.8,8.6c5.3,5.3,8.6,12.7,8.6,20.8
		c0,16.2-13.1,29.4-29.4,29.4c-18.6-0.1-37.1-0.1-55.7-0.2c-11.1-0.1-28.3-1.7-47.6-9.6c-14.6-5.9-25.6-13.5-33.1-19.6
		c-10.1-8.7-31.2-29.4-39.9-62.5c-1.3-5.1-3.9-16.4-3.9-30.4c0-66.1,53.6-119.8,120.6-122c1.4-0.1,2.8-0.1,4.2-0.1h117.7
		c5.9,9.6,9.3,21,9.3,33.1c0,9-1.9,17.5-5.2,25.3H363.6C328.4,312.2,299.9,340.7,299.9,375.9z"/>
</g>
<g id="B">
	<path class="st2" d="M551.7,472.7c0,66.1-53.6,119.8-120.6,122c-1.4,0.1-2.8,0.1-4.2,0.1H265.3c-16.1,0-30.7-6.5-41.3-17.1
		c-10.6-10.6-17.1-25.2-17.1-41.3h220.4c35.2,0,63.7-28.5,63.7-63.7c0-35.2-28.5-63.7-63.7-63.7h-0.4l-55.3,0.2
		c-8.1,0-15.5-3.3-20.8-8.6c-5.3-5.3-8.6-12.7-8.6-20.8c0-16.2,13.1-29.4,29.4-29.4l55.3,0.2h0.4c26.2,0,48.7-15.8,58.5-38.4
		c3.4-7.7,5.2-16.3,5.2-25.3c0-12.1-3.4-23.5-9.3-33.1c-11.2-18.3-31.3-30.6-54.4-30.6H206.9c0-16.1,6.5-30.7,17.1-41.3
		c10.6-10.6,25.2-17.1,41.3-17.1h161.6c1.4,0,2.8,0,4.2,0.1c67,2.2,120.6,55.9,120.6,122c0,1.5,0,3-0.1,4.5
		c-0.3,7.1-1.1,14-2.6,20.8c-5.8,26.8-20.5,50.4-41.1,67.6C534.7,402.2,551.7,435.5,551.7,472.7z"/>
</g>
</svg>
