<?xml version="1.0" encoding="UTF-8"?>
<svg id="mute-2" xmlns="http://www.w3.org/2000/svg" version="1.1" viewBox="0 0 800 800">
  <defs>
    <style>
      .cls-1 {
        fill: #d02c2f;
      }

      .cls-1, .cls-2 {
        stroke-width: 0px;
      }

      .cls-2 {
        fill: #fff;
      }
    </style>
  </defs>
  <path id="primary" class="cls-2" d="M581.7,70.3c-10.8-5.2-23.5-4.1-33.3,2.7l-220.3,160.3h-128c-36.8,0-66.7,29.8-66.7,66.7v200c0,36.8,29.8,66.7,66.7,66.7h128l219,160.3c9.8,6.8,22.5,7.8,33.3,2.7,11.7-5.3,19.4-16.8,19.7-29.7V100c0-12.6-7.1-24-18.3-29.7Z"/>
  <path id="secondary" class="cls-1" d="M726.7,159.3c-10.8-14.7-31.5-18-46.3-7.3L80.3,594c-14.9,10.8-18.2,31.6-7.5,46.5,6.3,8.7,16.4,13.8,27.1,13.8,7.1,0,14.1-2.3,19.7-6.7L719.7,205.7c14.6-10.9,17.7-31.6,7-46.3Z"/>
</svg>