<?xml version="1.0" encoding="UTF-8"?>
<svg id="mute-2" xmlns="http://www.w3.org/2000/svg" version="1.1" viewBox="0 0 800 800">
  <defs>
    <style>
      .cls-1 {
        fill: #d02c2f;
      }

      .cls-1, .cls-2 {
        stroke-width: 0px;
      }

      .cls-2 {
        fill: #fff;
      }
    </style>
  </defs>
  <path id="primary" class="cls-2" d="M581.7,70.3c-10.8-5.2-23.5-4.1-33.3,2.7l-220.3,160.3h-128c-36.8,0-66.7,29.8-66.7,66.7v200c0,36.8,29.8,66.7,66.7,66.7h128l219,160.3c9.8,6.8,22.5,7.8,33.3,2.7,11.7-5.3,19.4-16.8,19.7-29.7V100c0-12.6-7.1-24-18.3-29.7Z"/>
  <path id="secondary" class="cls-1" d="M675.1,433.4l84.7-.3c7.1.2,14.1-2,19.8-6.3,8.7-6.3,13.7-16.5,13.6-27.2-.2-18.4-15.2-33.2-33.6-33l-84.7.3c-18.3.2-33,15.1-32.9,33.4.1,18.3,14.9,33,33.1,33.1Z"/>
  <path id="secondary-2" data-name="secondary" class="cls-1" d="M695.2,240.2l59.7-60.1c5.2-4.9,8.5-11.4,9.5-18.4,1.6-10.6-1.9-21.4-9.6-28.9-13.1-12.9-34.2-12.7-47.1.4l-59.7,60.1c-12.8,13.1-12.6,34,.3,46.9,13,12.8,33.9,12.8,46.9,0Z"/>
  <path id="secondary-3" data-name="secondary" class="cls-1" d="M648,607.1l60.1,59.7c4.9,5.2,11.4,8.5,18.4,9.5,10.6,1.6,21.4-1.9,28.9-9.6,12.9-13.1,12.7-34.2-.4-47.1l-60.1-59.7c-13.1-12.8-34-12.6-46.9.3-12.8,13-12.8,33.9,0,46.9Z"/>
</svg>